# xmcd
#
# Track frame offsets:
#	150
#	13078
#	34187
#	52920
#	73358
#	96768
#	115014
#	143920
#	174387
#
# Disc length: 2633 seconds
#
# Revision: 0
# Processed by: cddbd v1.5.2PL0 Copyright (c) Steve Scherf et al.
# Submitted via: EasyCDDAExtractor 10.5.1.1
#
DISCID=770a4709
DTITLE=All Shall Perish - Hate - Malice - Revenge
DYEAR=2005
DGENRE=Death Metal
TTITLE0=Decontruction
TTITLE1=Laid to Rest
TTITLE2=Our Own Grave
TTITLE3=The Spreading Disease
TTITLE4=Sever the Memory
TTITLE5=For Far Too Long
TTITLE6=Never Ending War
TTITLE7=Herding the Brainwashed
TTITLE8=DATA
EXTD=
EXTT0=
EXTT1=
EXTT2=
EXTT3=
EXTT4=
EXTT5=
EXTT6=
EXTT7=
EXTT8=
PLAYORDER=
